<svg width="1000" height="269" viewBox="0 0 1000 269" fill="none" xmlns="http://www.w3.org/2000/svg">
<g clip-path="url(#clip0_90_59)">
<path d="M17.3768 134.344C17.3768 189.635 62.0639 234.453 117.188 234.453C172.317 234.453 217 189.635 217 134.344C217 133.298 216.988 132.256 216.954 131.218C215.309 185.061 171.83 222.985 117.752 222.985C63.6735 222.985 19.0714 185.057 17.4309 131.214C17.3923 132.256 17.3768 133.298 17.3768 134.344Z" fill="#51514F"/>
<path d="M19.5384 131.939C19.5384 77.8495 63.2567 34 117.185 34C171.116 34 214.831 77.8495 214.831 131.939C214.831 132.962 214.819 133.981 214.784 135C213.175 82.327 170.093 40.1219 117.185 40.1219C64.2757 40.1219 21.1982 82.327 19.5925 135C19.5539 133.981 19.5384 132.962 19.5384 131.939Z" fill="#284D07"/>
<path d="M125.97 104.128V87.071C125.97 86.8549 125.889 86.6464 125.738 86.4882L118.103 78.4401C117.771 78.0888 117.212 78.0888 116.88 78.4401L109.245 86.4882C109.094 86.6464 109.013 86.8549 109.013 87.071V104.194C109.013 104.456 109.137 104.703 109.345 104.862C112.414 107.22 114.969 109.698 116.752 112.354C117.104 112.875 117.864 112.86 118.184 112.323C120.068 109.2 122.496 106.68 125.553 104.85C125.812 104.7 125.97 104.426 125.97 104.128Z" fill="#254403"/>
<path d="M120.091 190.951V121.876C120.091 120.935 120.33 120.008 120.771 119.163C125.264 110.528 136.928 101.172 148.647 91.811C149.817 98.1337 150.06 104.445 148.57 110.733C148.296 111.895 147.698 112.971 146.822 113.84L130.177 130.345C129.934 130.585 129.799 130.905 129.799 131.237V133.117C129.799 134.236 131.227 134.819 132.107 134.059L160.644 109.401C161.277 117.727 161.181 125.188 159.332 130.55C158.869 131.897 158.073 133.121 157 134.12L124.09 164.83V192.549C122.233 193.051 120.689 192.939 120.091 190.951Z" fill="#284D07"/>
<path d="M109.202 163.927L77.3379 134.089C76.2648 133.086 75.4697 131.858 75.0142 130.515C73.173 125.15 73.0958 117.688 73.7404 109.362L102.231 134.066C103.111 134.823 104.539 134.252 104.539 133.132L104.543 131.245C104.543 130.913 104.408 130.592 104.169 130.361L87.5553 113.832C86.6791 112.956 86.0847 111.879 85.8145 110.717C84.3284 104.425 84.5908 98.1143 85.7681 91.7955C97.4716 101.175 109.117 110.551 113.591 119.194C114.035 120.035 114.274 120.965 114.27 121.915L114.185 168.223" fill="#254403"/>
<path d="M243 134.731C243 128.786 244.126 123.148 246.397 117.827C248.658 112.506 251.8 107.789 255.821 103.676C259.842 99.5626 264.498 96.3393 269.809 93.9859C275.119 91.6427 280.809 90.4659 286.897 90.4659C292.903 90.4659 298.562 91.6427 303.872 93.9859C309.183 96.3291 313.88 99.5626 317.983 103.676C322.076 107.789 325.278 112.506 327.581 117.827C329.883 123.148 331.039 128.786 331.039 134.731C331.039 140.84 329.883 146.55 327.581 151.87C325.278 157.191 322.076 161.867 317.983 165.899C313.89 169.931 309.183 173.082 303.872 175.354C298.562 177.625 292.903 178.761 286.897 178.761C280.809 178.761 275.109 177.625 269.809 175.354C264.498 173.082 259.842 169.931 255.821 165.899C251.8 161.867 248.658 157.191 246.397 151.87C244.136 146.55 243 140.84 243 134.731ZM260.569 134.731C260.569 138.568 261.255 142.15 262.615 145.475C263.976 148.801 265.89 151.737 268.356 154.285C270.812 156.833 273.666 158.808 276.9 160.21C280.133 161.622 283.674 162.328 287.49 162.328C291.154 162.328 294.571 161.622 297.733 160.21C300.895 158.798 303.647 156.823 305.99 154.285C308.334 151.737 310.165 148.811 311.495 145.475C312.826 142.15 313.481 138.568 313.481 134.731C313.481 130.822 312.795 127.18 311.434 123.813C310.063 120.447 308.19 117.49 305.817 114.952C303.432 112.404 300.649 110.429 297.446 109.017C294.244 107.605 290.775 106.899 287.03 106.899C283.285 106.899 279.806 107.605 276.613 109.017C273.411 110.429 270.607 112.404 268.182 114.952C265.757 117.5 263.884 120.457 262.564 123.813C261.224 127.18 260.569 130.822 260.569 134.731Z" fill="#284D07"/>
<path d="M339.471 177.83L378.343 88H379.285L418.158 177.83H398.491L373.667 114.655L385.956 106.203L356.221 177.83H339.471ZM366.044 146.591H391.922L397.887 160.916H360.775L366.044 146.591Z" fill="#284D07"/>
<path d="M454.902 122.166L454.431 126.515L457.01 123.23L485.108 91.4072H507.118L471.53 130.157L507.241 177.83H485.702L459.128 140.963L454.912 145.189V177.83H437.701V91.4072H454.912V122.166H454.902Z" fill="#284D07"/>
<path d="M567.294 177.83V94.4565H587.78C595.822 94.4565 602.668 95.7253 608.326 98.2732C613.985 100.821 618.569 104.167 622.078 108.311C625.588 112.465 628.167 116.998 629.804 121.93C631.441 126.862 632.26 131.754 632.26 136.604C632.26 142.948 631.165 148.637 628.985 153.692C626.796 158.736 623.818 163.065 620.032 166.666C616.246 170.268 611.938 173.031 607.098 174.944C602.258 176.868 597.142 177.82 591.76 177.82H567.294V177.83ZM573.035 172.304H590.246C595.239 172.304 599.925 171.486 604.295 169.838C608.664 168.191 612.511 165.807 615.827 162.676C619.142 159.545 621.741 155.769 623.613 151.348C625.486 146.928 626.427 141.894 626.427 136.256C626.427 131.477 625.629 126.924 624.023 122.575C622.426 118.226 620.022 114.379 616.819 111.013C613.616 107.646 609.677 104.986 604.99 103.031C600.304 101.077 594.84 100.095 588.598 100.095H573.035V172.304Z" fill="#51514F"/>
<path d="M653.461 94.4565H704.736V99.9718H659.191V133.084H700.162V138.599H659.191V172.304H706.373V177.82H653.461V94.4565Z" fill="#51514F"/>
<path d="M769.824 103.85C767.399 102.673 764.441 101.578 760.921 100.565C757.412 99.5521 753.892 99.0405 750.382 99.0405C744.918 99.0405 740.549 100.412 737.274 103.154C734 105.896 732.363 109.334 732.363 113.489C732.363 116.62 733.304 119.229 735.177 121.296C737.049 123.373 739.505 125.133 742.554 126.576C745.593 128.029 748.837 129.41 752.275 130.74C755.007 131.764 757.719 132.899 760.41 134.148C763.101 135.396 765.536 136.931 767.726 138.732C769.905 140.533 771.645 142.763 772.934 145.424C774.223 148.084 774.868 151.369 774.868 155.288C774.868 159.903 773.773 163.996 771.594 167.556C769.404 171.117 766.365 173.88 762.467 175.834C758.558 177.789 754.035 178.771 748.888 178.771C744.754 178.771 740.989 178.259 737.592 177.246C734.195 176.233 731.227 175.036 728.689 173.665C726.152 172.294 724.146 171.138 722.663 170.207L725.354 165.51C727.073 166.758 729.16 168.017 731.616 169.265C734.072 170.514 736.742 171.578 739.638 172.437C742.524 173.297 745.409 173.727 748.305 173.727C751.661 173.727 754.915 173.061 758.077 171.731C761.239 170.401 763.848 168.385 765.925 165.684C767.992 162.983 769.025 159.555 769.025 155.411C769.025 151.42 768.043 148.187 766.099 145.721C764.145 143.255 761.648 141.239 758.609 139.673C755.57 138.108 752.326 136.696 748.888 135.447C746.238 134.434 743.578 133.35 740.927 132.214C738.277 131.078 735.852 129.707 733.673 128.1C731.483 126.494 729.754 124.56 728.464 122.288C727.175 120.017 726.53 117.285 726.53 114.072C726.53 110.081 727.543 106.602 729.569 103.625C731.595 100.647 734.348 98.3243 737.827 96.6359C741.296 94.9578 745.256 94.0778 749.707 93.996C753.605 93.996 757.565 94.5076 761.587 95.5206C765.608 96.5438 769.097 97.8331 772.064 99.3987L769.824 103.85Z" fill="#51514F"/>
<path d="M796.284 94.4565H802.025V177.83H796.284V94.4565Z" fill="#51514F"/>
<path d="M891.231 171.957C889.829 172.898 888.13 173.778 886.135 174.597C884.15 175.415 882.022 176.142 879.75 176.766C877.489 177.39 875.166 177.881 872.782 178.229C870.398 178.577 868.157 178.761 866.049 178.761C859.49 178.761 853.586 177.687 848.316 175.528C843.046 173.379 838.544 170.401 834.799 166.605C831.054 162.809 828.189 158.389 826.194 153.334C824.209 148.289 823.206 142.825 823.206 136.952C823.206 130.608 824.321 124.775 826.542 119.454C828.762 114.134 831.832 109.529 835.73 105.661C839.629 101.783 844.162 98.7952 849.309 96.6771C854.466 94.559 859.92 93.5051 865.701 93.5051C870.07 93.5051 874.184 94.0577 878.051 95.1525C881.919 96.2474 885.408 97.7311 888.529 99.6138L886.421 104.781C884.621 103.686 882.595 102.724 880.333 101.906C878.072 101.087 875.749 100.443 873.365 99.972C870.981 99.5013 868.627 99.266 866.284 99.266C860.974 99.266 856.062 100.207 851.529 102.08C847.006 103.963 843.057 106.582 839.7 109.949C836.344 113.315 833.735 117.265 831.852 121.808C829.98 126.351 829.038 131.283 829.038 136.604C829.038 141.771 829.918 146.57 831.668 150.991C833.428 155.411 835.925 159.289 839.158 162.615C842.392 165.94 846.28 168.529 850.803 170.36C855.325 172.202 860.36 173.123 865.906 173.123C869.18 173.123 872.618 172.734 876.21 171.946C879.801 171.169 882.881 170.033 885.46 168.539V145.414H866.724V139.899H891.19V171.957H891.231Z" fill="#51514F"/>
<path d="M984.765 179.825L919.206 105.733L920.731 104.556L920.843 177.83H915.226V92.6965H915.573L981.132 167.383L979.608 167.853L979.495 94.4668H985V179.835H984.765V179.825Z" fill="#51514F"/>
</g>
<defs>
<clipPath id="clip0_90_59">
<rect width="1000" height="269" fill="white"/>
</clipPath>
</defs>
</svg>
